<svg height="512pt" viewBox="0 0 512 512" width="512pt" xmlns="http://www.w3.org/2000/svg" xmlns:xlink="http://www.w3.org/1999/xlink"><linearGradient id="a" gradientUnits="userSpaceOnUse" x1="0" x2="512" y1="256" y2="256"><stop offset="0" stop-color="#00f38d"/><stop offset="1" stop-color="#009eff"/></linearGradient><path d="m512 256c0 141.386719-114.613281 256-256 256s-256-114.613281-256-256 114.613281-256 256-256 256 114.613281 256 256zm0 0" fill="url(#a)"/><g fill="#fff"><path d="m222.488281 143.507812 67.023438-18.199218v163.578125h24.929687v-164.328125l75.414063 18.378906v145.953125h24.929687v-165.535156l-112.351562-27.386719-94.195313 25.578125-112.558593-25.867187v291.589843l112.945312 27.363281 55.332031-14.660156v-25.789062l-41.46875 10.984375zm-101.878906-16.519531 73.878906 16.980469v241.585938l-73.878906-17.894532zm0 0"/><path d="m416.320312 337.839844h-49.859374v-50.484375h-28v50.484375h-50.484376v28h50.484376v50.480468h28v-50.480468h49.859374zm0 0"/></g></svg>