<svg id="Capa_1" enable-background="new 0 0 512.59 512.59" height="512" viewBox="0 0 512.59 512.59" width="512" xmlns="http://www.w3.org/2000/svg"><g><path d="m226.295 60.295c0-33.084-26.916-60-60-60s-60 26.916-60 60 26.916 60 60 60 60-26.916 60-60zm-60 30c-16.542 0-30-13.458-30-30s13.458-30 30-30 30 13.458 30 30-13.458 30-30 30z"/><path d="m406.295 60.295c0-33.084-26.916-60-60-60s-60 26.916-60 60 26.916 60 60 60 60-26.916 60-60zm-60 30c-16.542 0-30-13.458-30-30s13.458-30 30-30 30 13.458 30 30-13.458 30-30 30z"/><path d="m196.295 331.295c0-33.084-26.916-60-60-60s-60 26.916-60 60 26.916 60 60 60 60-26.916 60-60zm-60 30c-16.542 0-30-13.458-30-30s13.458-30 30-30 30 13.458 30 30-13.458 30-30 30z"/><path d="m436.295 331.295c0-33.084-26.916-60-60-60s-60 26.916-60 60 26.916 60 60 60 60-26.916 60-60zm-60 30c-16.542 0-30-13.458-30-30s13.458-30 30-30 30 13.458 30 30-13.458 30-30 30z"/><path d="m421.295 211.295v-15c0-41.458-33.534-76-75-76-41.458 0-75 34.534-75 76v15h-30v-15c0-41.459-33.535-76-75-76-41.458 0-75 34.534-75 76v15h-57.009l-34.286 239.99h62.804c-.988 4.848-1.509 9.874-1.509 15.01v46h150v-46c0-5.136-.491-10.162-1.479-15.01h93.019c-.988 4.848-1.539 9.874-1.539 15.01v46h150v-46c0-5.136-.521-10.152-1.509-15h62.804l-34.285-240zm-120-15c0-24.935 20.607-46 45-46s45 21.065 45 46v15h-90zm-180 0c0-24.935 20.607-46 45-46s45 21.065 45 46v15h-90zm60 286h-90v-16c0-24.813 20.187-45 45-45s45 20.187 45 45zm240 0h-90v-16c0-24.813 20.187-45 45-45s45 20.187 45 45zm14.959-61c-13.697-18.204-35.475-30-59.959-30s-46.262 11.796-59.959 30h-120.082c-13.697-18.204-35.475-30-59.959-30s-46.262 11.796-59.959 30h-41.746l25.714-180h391.981l25.715 180z"/></g></svg>