<svg height="18" viewBox="-3 0 479 479.6462" width="19" xmlns="http://www.w3.org/2000/svg"
    xmlns:xlink="http://www.w3.org/1999/xlink">
    <linearGradient id="a">
        <stop offset="0" stop-color="#00efd1" />
        <stop offset="1" stop-color="#00acea" />
    </linearGradient>
    <linearGradient id="b" gradientUnits="userSpaceOnUse" x1="189.101297" x2="189.101297"
        xlink:href="#a" y1="6.144" y2="471.665" />
    <linearGradient id="c" gradientUnits="userSpaceOnUse" x1="341.099297" x2="341.099297"
        xlink:href="#a" y1="6.144" y2="471.665" />
    <linearGradient id="d" gradientUnits="userSpaceOnUse" x1="316.085297" x2="316.085297"
        xlink:href="#a" y1="6.144" y2="471.665" />
    <linearGradient id="e" gradientUnits="userSpaceOnUse" x1="341.037297" x2="341.037297"
        xlink:href="#a" y1="6.144" y2="471.665" />
    <path
        d="m301.171875 306.5625c-5.289063-5.289062-12.472656-8.242188-19.953125-8.199219s-14.632812 3.074219-19.863281 8.421875l-14.519531 14.847656c-8.136719 8.378907-10.25 20.914063-5.308594 31.492188l-14.148438 14.148438c-2.203125 2.246093-5.210937 3.519531-8.359375 3.527343-3.144531.011719-6.164062-1.238281-8.382812-3.46875l-98.058594-98.058593c-.183594-.183594-.363281-.375-.535156-.566407-4.054688-4.679687-3.789063-11.695312.597656-16.0625l13.984375-13.980469c10.753906 5.277344 23.671875 3.140626 32.152344-5.320312l14.789062-14.789062c10.9375-10.9375 10.9375-28.664063 0-39.601563l-68.546875-68.546875c-10.933593-10.933594-28.664062-10.933594-39.597656 0l-14.789063 14.792969c-10.25 10.277343-10.960937 26.675781-1.636718 37.800781l-27 27c-28.898438 28.898438-28.898438 75.746094 0 104.644531l163.328125 163.332031c28.898437 28.894532 75.746093 28.894532 104.644531 0l27.082031-26.957031c5.066407 4.472657 11.582031 6.953125 18.34375 6.980469h.160157c7.503906-.046875 14.667968-3.128906 19.863281-8.546875l14.519531-14.90625c10.675781-11.003906 10.578125-28.527344-.21875-39.40625zm-239.222656-170.050781 14.789062-14.789063c4.6875-4.6875 12.285157-4.6875 16.972657 0l68.539062 68.546875c4.683594 4.6875 4.683594 12.285157 0 16.96875l-14.789062 14.792969c-4.691407 4.675781-12.28125 4.675781-16.972657 0l-68.539062-68.546875c-4.675781-4.691406-4.675781-12.28125 0-16.972656zm216.710937 310.148437c-22.648437 22.648438-59.367187 22.648438-82.015625 0l-163.335937-163.328125c-22.644532-22.648437-22.644532-59.367187 0-82.019531l26.917968-26.917969 54.023438 54.015625-12.859375 12.859375c-10.34375 10.367188-10.929687 26.960938-1.339844 38.03125.425781.480469.875.953125 1.273438 1.34375l98.054687 98.054688c10.871094 10.789062 28.417969 10.761719 39.257813-.054688l13.027343-13.027343 54.015626 54.019531zm79.839844-43.359375-14.523438 14.847657c-2.238281 2.292968-5.304687 3.59375-8.511718 3.613281-3.203125.015625-6.285156-1.246094-8.550782-3.515625l-68.546874-68.546875c-4.625-4.65625-4.667969-12.164063-.09375-16.875l14.519531-15.027344c2.214843-2.359375 5.28125-3.726563 8.515625-3.796875h.066406c3.207031.058594 6.257812 1.390625 8.484375 3.699219l68.546875 68.636719c4.625 4.695312 4.667969 12.21875.09375 16.964843zm0 0"
        fill="url(#b)" />
    <path
        d="m341.210938 0h.238281v.175781c-50.449219-.0937498-96.511719 28.667969-118.578125 74.039063-22.0625 45.371094-16.246094 99.363281 14.976562 138.988281l-18.832031 43.796875c-1.164063 2.695312-.757813 5.8125 1.058594 8.121094 1.816406 2.304687 4.75 3.433594 7.644531 2.9375l69.578125-12.414063c13.882813 4.945313 28.523437 7.433594 43.265625 7.355469h.480469c72.445312 0 131.433593-58.851562 131.535156-131.320312.097656-72.527344-58.828125-131.679688-131.367187-131.679688zm-.363282 247.425781c-13.652344.03125-27.195312-2.441406-39.957031-7.292969-1.347656-.511718-2.808594-.652343-4.226563-.402343l-57.140624 10.019531 14.894531-34.667969c1.203125-2.804687.707031-6.050781-1.28125-8.367187-17.832031-20.785156-27.632813-47.269532-27.636719-74.65625-.070312-46.761719 28.054688-88.957032 71.246094-106.882813s92.929687-8.050781 125.992187 25.019531c33.066407 33.070313 42.9375 82.808594 25.003907 125.996094-17.929688 43.1875-60.128907 71.308594-106.894532 71.234375zm0 0"
        fill="url(#c)" />
    <path
        d="m296.835938 121h38.5c4.417968 0 8-3.582031 8-8s-3.582032-8-8-8h-38.5c-4.417969 0-8 3.582031-8 8s3.582031 8 8 8zm0 0"
        fill="url(#d)" />
    <path
        d="m385.238281 141h-88.398437c-4.417969 0-8 3.582031-8 8s3.582031 8 8 8h88.398437c4.417969 0 8-3.582031 8-8s-3.582031-8-8-8zm0 0"
        fill="url(#e)" />
</svg>