<svg height="512" viewBox="0 0 54 62" width="512" xmlns="http://www.w3.org/2000/svg"><g id="033---Cutting-Branch" fill="none"><g id="Icons" transform="translate(1 1)"><path id="Shape" d="m45 7.78c-.08 0-8.09 3.86-7.56 9.18.22.73.42 1.45.6 2.17s.45 1.68.63 2.51c.22 1 .39 2 .56 2.94 1.1511316 6.6249794 1.2725618 13.3879667.36 20.05l-1 5.42c-.5574499 2.5357313-1.3336895 5.0183599-2.32 7.42-.3833011.9174981-1.2757156 1.5189934-2.27 1.53-.3438686.0063701-.6850329-.0618627-1-.2-.611101-.2559392-1.0950056-.744868-1.3446193-1.3585799s-.2443525-1.3015981.0146193-1.9114201c.9342699-2.3981721 1.6537615-4.874562 2.15-7.4l1-6.27c.4984759-4.8492378.4145452-9.7407179-.25-14.57-.15-1.11-.35-2.24-.57-3.39-.18-.92-.37-1.86-.6-2.8-.47-1.92-1-3.89-1.75-5.89-1.2914355-3.6266687-2.9045233-7.13061672-4.82-10.47-.4686476-.77685917-.4796309-1.74664516-.0286979-2.53391904.4509329-.78727388 1.292997-1.26845333 2.2001989-1.25725653.9072019.01119681 1.7371337.51301225 2.168499 1.31117557 1.3655319 2.38166726 2.5877047 4.84270915 3.66 7.37 2.2071822-2.72332346 4.9996844-4.91425841 8.17-6.41.829599-.45787482 1.8467608-.4073723 2.6269241.1304279.7801634.5378002 1.1892213 1.47045238 1.056434 2.40866954-.1327873.93821715-.7845943 1.72072349-1.6833581 2.02090256z" fill="#a0522d"/><path id="Shape" d="m51.22 51.33c-1.2838998.1913844-2.5829439.2616935-3.88.21-5.487603-.1899251-10.8403366-1.7507093-15.57-4.54-2.6368226-1.432628-5.1111754-3.1458994-7.38-5.11-.8386546-.791171-1.586597-1.6732735-2.23-2.63l-2.68-4.76c-.7690302-1.5664988-1.6901221-3.0536434-2.75-4.44.4274332-.0414444.8043268-.297732 1-.68l1.34-2.33c1.10111.8084253 2.1406376 1.697539 3.11 2.66l4.11 4.79c.61.84 1.21 1.74 1.79 2.71.4248867.7333027 1.0264852 1.3486521 1.75 1.79z" fill="#707070"/><path id="Shape" d="m47.34 51.54c-5.487603-.1899251-10.8403366-1.7507093-15.57-4.54-2.6368226-1.432628-5.1111754-3.1458994-7.38-5.11-.8386546-.791171-1.586597-1.6732735-2.23-2.63l-2.68-4.76c-.7690302-1.5664988-1.6901221-3.0536434-2.75-4.44.4274332-.0414444.8043268-.297732 1-.68l.27-.38c.65.52 1.52 1.26 2.48 2.19l4.06 4.81c.61.84 1.21 1.74 1.79 2.71.4331282.7284002 1.0415998 1.3368718 1.77 1.77z" fill="#9e9e9e"/><path id="Shape" d="m51.23 17.67-12 6.91c-.14-.8066667-.3-1.6266667-.48-2.46 0-.12-.05-.25-.08-.37-.19-.86-.4-1.74-.63-2.62 2.8251858-.9563601 5.7705383-1.5117694 8.75-1.65 1.4825891-.0902777 2.9705432-.026604 4.44.19z" fill="#707070"/><path id="Shape" d="m46.82 17.48-8 4.64c0-.12-.05-.25-.08-.37-.19-.86-.4-1.74-.63-2.62 2.8123889-.9526991 5.7440229-1.5080603 8.71-1.65z" fill="#9e9e9e"/><path id="Shape" d="m34.57 27.29-4.73 2.71c-.7327308.4275353-1.3424647 1.0372692-1.77 1.77-.58 1-1.19 1.88-1.8 2.72-1.2289129 1.7094098-2.6040886 3.3087626-4.11 4.78-.9611462.988833-1.9975921 1.901574-3.1 2.73 0-.07-.1-.17-1.35-2.33-.1956732-.382268-.5725668-.6385556-1-.68 1.1712879-1.5577167 2.1767384-3.2334675 3-5 .7007752-1.4788298 1.5061526-2.9057847 2.41-4.27.6469295-.9569431 1.3982075-1.8390239 2.24-2.63 2.2806226-1.9617763 4.7687118-3.6685652 7.42-5.09.52-.3 1-.59 1.57-.84.5142512 2.0204417.9214846 4.0666223 1.22 6.13z" fill="#707070"/><path id="Shape" d="m34 25-5.37 3.1c-.8270923.484195-1.515805 1.1729077-2 2-.65 1.1-1.35 2.13-2 3.09-1.3986843 1.9400885-2.961068 3.7567359-4.67 5.43-.64.64-1.26 1.18-1.79 1.63l-.4-.69c-.1956732-.382268-.5725668-.6385556-1-.68 1.1712879-1.5577167 2.1767384-3.2334675 3-5 .7007752-1.4788298 1.5061526-2.9057847 2.41-4.27.6469295-.9569431 1.3982075-1.8390239 2.24-2.63 2.2671294-1.9198161 4.7347366-3.5894743 7.36-4.98.52-.3 1-.59 1.57-.84.26 1.3.48 2.6.65 3.84z" fill="#9e9e9e"/><path id="Shape" d="m14.76 24.5-1.5 2.6c-.3067641.544774-.8506327.9147526-1.47 1-.4360638.0574821-.8789157-.0303854-1.26-.25l-9.53-5.52c-.95461131-.5529293-1.28123402-1.7744087-.73-2.73l1-1.68.5-.92c.55292932-.9546113 1.77440874-1.281234 2.73-.73l9.5 5.5c.4635711.2605079.8043153.6949004.9469264 1.2071743.142611.512274.075347 1.0602512-.1869264 1.5228257z" fill="#c81e1e"/><path id="Shape" d="m12.76 26.4-1 1.68c-.4360638.0574821-.8789157-.0303854-1.26-.25l-9.5-5.5c-.95461131-.5529293-1.28123402-1.7744087-.73-2.73l1-1.68c.43606377-.0574821.87891574.0303854 1.26.25l9.47 5.5c.4635711.2605079.8043153.6949004.9469264 1.2071743.142611.512274.075347 1.0602512-.1869264 1.5228257z" fill="#f44335"/><path id="Shape" d="m12.52 27.83 3.7 2.17c.5717223.2457529 1.2348879-.0123921 1.49-.58l1.29-2.2c.3654163-.5071462.2588262-1.2133055-.24-1.59l-3.76-2.13" fill="#c81e1e"/><path id="Shape" d="m14 47.23-9.5 5.5c-.95559126.551234-2.17707068.2246113-2.73-.73l-1.5-2.6c-.11104763-.1840815-.18573192-.387766-.22-.6-.16378078-.8517237.2400767-1.7119401 1-2.13l9.53-5.5c.9555913-.551234 2.1770707-.2246113 2.73.73l.69 1.2.81 1.4c.2583415.4686701.3180802 1.0213253.1658567 1.5343751-.1522236.5130497-.5037102.943693-.9758567 1.1956249z" fill="#c81e1e"/><path id="Shape" d="m13 45.23-9.53 5.5c-.95559126.551234-2.17707068.2246113-2.73-.73l-.69-1.2c-.16378078-.8517237.2400767-1.7119401 1-2.13l9.53-5.5c.9555913-.551234 2.1770707-.2246113 2.73.73l.69 1.2c.1637808.8517237-.2400767 1.7119401-1 2.13z" fill="#f44335"/><path id="Shape" d="m15 45.5 3.7-2.13c.5190005-.3581206.6528238-1.0673842.3-1.59l-1.25-2.16c-.1145834-.2901383-.3430553-.5206481-.6321646-.6378035s-.6135978-.110721-.8978354.0178035l-3.7 2.13" fill="#c81e1e"/><path id="Shape" d="m25.61 15.77c-1.2139553.319557-2.4819586.3775034-3.72.17-1.5670577-.2319274-3.0865221-.7147794-4.5-1.43-3.86-1.94-6.39-5.09-6.26-7.61.6835598-.53114315 1.4933083-.87571698 2.35-1 2.5961776-.30264755 5.2224788.20375362 7.52 1.45 3 1.5 5.17 3.73 5.94 5.83.1842277.5194352.1459402 1.0918715-.1058221 1.5821454-.2517623.490274-.6946823.854926-1.2241779 1.0078546z" fill="#549414"/><path id="Shape" d="m22.61 15.77c-.2367971.0694642-.4771405.1262119-.72.17-1.5670577-.2319274-3.0865221-.7147794-4.5-1.43-3.86-1.94-6.39-5.09-6.26-7.61.6835598-.53114315 1.4933083-.87571698 2.35-1 1.5740786.24035944 3.099846.72982022 4.52 1.45 3 1.5 5.17 3.73 5.94 5.83.1842277.5194352.1459402 1.0918715-.1058221 1.5821454-.2517623.490274-.6946823.854926-1.2241779 1.0078546z" fill="#60a917"/></g><g id="Layer_10" fill="#000" transform="translate(-1)"><path id="Shape" d="m18.19 39c-.39.1-.15 0-3.74 2.07-.8119818-.2772097-1.703798-.1934882-2.45.23l-9.5 5.5c-.68990131.3975093-1.19347986 1.0529734-1.39980503 1.8220035-.20632516.7690302-.09847059 1.5885373.29980503 2.2779965l1.5 2.6c.3975093.6899013 1.05297336 1.1934799 1.82200353 1.399805.76903017.2063252 1.58853726.0984706 2.27799647-.299805l9.53-5.5c.7366971-.4338682 1.2532792-1.1614486 1.42-2l3.27-1.89c.5008081-.2959062.8394743-.8039055.92-1.38.13-.87-.5.14 1.89-2.06 2.45 3.23 7.4 6.23 10.67 7.91-.4731046 2.1994574-1.115005 4.3591849-1.92 6.46-.5633677 1.1639853-.4390212 2.5437628.3233772 3.5882692.7623985 1.0445064 2.0386061 1.5835258 3.3189241 1.4017816s2.3561017-1.0546344 2.7976987-2.2700508c.8777087-2.1207998 1.5865785-4.3075964 2.12-6.54 3.9101639 1.1682766 8.0208861 1.5088501 12.07 1 .4125586-.0753179.7342936-.4000578.8057731-.8132987s-.1224836-.8271826-.4857731-1.0367013l-11-6.37c.8023929-6.3166513.6878764-12.7161008-.34-19l11.38-6.56c.3632895-.2095187.5572526-.6234604.4857731-1.0367013s-.3932145-.7379808-.8057731-.8132987c-4.2519933-.5498685-8.5730632-.1467964-12.65 1.18-.1-.37-.19-.73-.3-1.1-.35-4.49 6.9-8 7-8.08 1.1459924-.5105015 1.9310998-1.5953198 2.0578716-2.84345411s-.4241844-2.46865534-1.44413-3.19914915c-1.0199457-.73049381-2.3528579-.85921548-3.4937416-.33739674-2.8189392 1.3326934-5.36817 3.17342785-7.52 5.43-.92-2-2-4-3.06-6-.572155-1.18110463-1.7569764-1.9428731-3.0690168-1.9731922-1.3120405-.03031911-2.5307848.6759069-3.1568868 1.82932177-.6261019 1.15341487-.5543322 2.56016359.1859036 3.64387043 1.6586543 2.88259217 3.0864498 5.8919973 4.27 9-.7316227-.0019194-1.4614643-.0722252-2.18-.21-.86-6.5-12.78-12-17.68-8-1.2 1 .16 6.13 6.45 9.27 3.12 1.56 7.59 2.53 10.51.59 1.1769632.287801 2.3907264.395691 3.6.32.49 1.43.92 2.88 1.29 4.33-3.46 1.86-7.75 4.54-10.18 7.64-2.46-2.18-1.81-1.18-1.94-2.03-.0805257-.5760945-.4191919-1.0840938-.92-1.38l-3.22-1.89c-.1667208-.8385514-.6833029-1.5661318-1.42-2l-9.58-5.48c-.68945921-.3982756-1.5089663-.5061302-2.27799647-.299805-.76903017.2063251-1.42449423.7099037-1.82200353 1.399805l-1.5 2.6c-.39827562.6894592-.50613019 1.5089663-.29980503 2.2779965.20632517.7690301.70990372 1.4244942 1.39980503 1.8220035l9.5 5.5c.7294504.428987 1.6102733.5167038 2.41.24 3.65 2.1 3.4 2 3.76 2.08.8119975 1.0983259 1.5311477 2.2623459 2.15 3.48-.614821 1.2219938-1.3271269 2.3924494-2.13 3.5zm3.17-9.45c.41.33.92.77 1.51 1.32-.52.83-1 1.67-1.42 2.49-.4-.71-.82-1.37-1.24-2 .4576282-.5564099.843953-1.1678108 1.15-1.82zm-5.83 17.82-9.53 5.5c-.23052374.133545-.50480629.1695837-.76200366.1001217-.25719736-.0694621-.47604512-.238682-.60799634-.4701217l-1.5-2.6c-.2713883-.4779792-.10613642-1.0853915.37-1.36l9.5-5.54c.4753732-.2730821 1.0819888-.1125074 1.36.36l1.5 2.6c.1499011.2289209.1994471.5092686.1370903.775702-.0623567.2664334-.2311685.495676-.4670903.634298zm2.09-2.37-1.5-2.6 2.52-1.47c.16 0 .27.29 1.46 2.35.07.13.06.24.11.23zm19.76 13.09c-.2326712.559462-.7790845.9240009-1.385.9240009s-1.1523288-.3645389-1.385-.9240009c-.45-1.11.5-1.27 1.94-7.5 1 .44 1.94.83 2.88 1.15-.5229422 2.1651318-1.2082137 4.2878021-2.05 6.35zm-3.1-10.93c-3.06-1.76-6.72-4-8.81-6.77.9814865-1.0079072 1.9062436-2.0695417 2.77-3.18 2.55 3.8.33 1.8 12.87 9.28.85.51-3.11-1.8 8.75 5-5.4798078-.0758361-10.8468832-1.5674559-15.58-4.33zm1.46-17.24c.4214761 3.7419827.4884404 7.5154189.2 11.27-5.62-3.24-3.77-1.85-6.45-5.69 2.67-3.82.84-2.45 6.25-5.58zm6.26-5.92c-.21-1.08-.45-2.15-.71-3.2 2.7907367-.8604107 5.6899343-1.3183559 8.61-1.36zm-12.45-19.88c.1567431-.58699618.6520973-1.02146762 1.2545204-1.10033028s1.1929214.21346081 1.4954796.74033028c1.3477273 2.338598 2.5532472 4.75631667 3.61 7.24.1396822.3291078.4444395.5586059.7993277.6019353.3548882.0433293.7059102-.1061026.9206723-.3919353 2.0908448-2.59117128 4.7401434-4.67642568 7.75-6.1.7359668-.27961668 1.5632642.05315035 1.9006314.76449834.3373673.71134798.0715747 1.562529-.6106314 1.95550166-.08 0-8.8 4.1-8.19 10.21 2.5111435 8.409246 3.3035539 17.2379903 2.33 25.96l-3-1.69c.8382343-8.5403085-.118922-17.1615274-2.81-25.31h.23c.3572656-.0678805.6511788-.3212035.7710254-.6645448s.047419-.7245392-.19-1c-.237419-.2754609-.6037598-.4033357-.9610254-.3354552l-.51.08c-1.2641845-3.4056487-2.8025633-6.70313022-4.6-9.86-.2065401-.32702373-.274874-.72264112-.19-1.1zm-15.55 4.23c4.16-2.38 13.47 2.27 14.06 7-4.14 2.42-13.45-2.24-14.06-7zm20.7 15.25c.31 1.37.57 2.76.77 4.17-7.07 4.08-4.48 2.3-8 7.16-1.745975 2.4283596-3.7960124 4.6229079-6.1 6.53-.3078774-.6565154-.6976438-1.2714055-1.16-1.83 4.85-6.9 2.47-9.29 14.49-16.03zm-21.7 4.4-9.5-5.54c-.47613642-.2746085-.6413883-.8820208-.37-1.36l1.5-2.6c.13195122-.2314397.35079898-.4006596.60799634-.4701217.25719737-.069462.53147992-.0334233.76200366.1001217l9.53 5.5c.2297442.133628.3968418.3532172.4643886.6102702.0675467.257053.0299853.5304211-.1043886.7597298l-1.5 2.6c-.126686.2420596-.3468935.4217465-.6094457.4973011-.2625523.0755546-.5445854.0403974-.7805543-.0973011zm3.1.64 1.53-2.64 2.53 1.45c.06.16-.12.38-1.31 2.44-.07.12-.14.17-.14.2-.8972949-.4290913-1.7598913-.9272574-2.58-1.49z"/><circle id="Oval" cx="25.61" cy="34" r="1"/></g></g></svg>