<?xml version="1.0"?>
<svg xmlns="http://www.w3.org/2000/svg" viewBox="0 0 512 512" width="512" height="512"><g id="Fertilizer"><g id="Glyph"><path d="M298.214,330.984c22.3-11.955,36.542-44.691,37.138-46.079a8.1,8.1,0,0,0-5.912-11.024c-1.485-.273-36.636-6.519-58.931,5.434a41.62,41.62,0,0,0-14.879,13.278,41.615,41.615,0,0,0-14.88-13.278c-22.293-11.953-57.444-5.707-58.931-5.434a8.087,8.087,0,0,0-5.911,11.024c.595,1.388,14.842,34.124,37.137,46.079,12.28,6.585,24.468,6.112,34.955,2.531v19.034A48.11,48.11,0,0,0,207.939,392H192a7.83,7.83,0,1,0,0,15.657H320A7.83,7.83,0,1,0,320,392H302.58A48.11,48.11,0,0,0,264,352.812V333.576C274.412,336.614,287.377,336.8,298.214,330.984Z"/><path d="M256,0C218.173,0,152.674,55.889,111.13,98.41A8,8,0,0,0,116.855,112H394.692a8,8,0,0,0,5.669-13.648C358.015,55.888,291.053,0,256,0ZM184,96a8,8,0,1,1,8-8A8,8,0,0,1,184,96Zm32-32a8,8,0,1,1,8-8A8,8,0,0,1,216,64Zm16,32a8,8,0,1,1,8-8A8,8,0,0,1,232,96Zm8-64a8,8,0,1,1,8-8A8,8,0,0,1,240,32Zm16,24a8,8,0,1,1,8-8A8,8,0,0,1,256,56Zm16,40a8,8,0,1,1,8-8A8,8,0,0,1,272,96Zm8-56a8,8,0,1,1,8-8A8,8,0,0,1,280,40Zm16,32a8,8,0,1,1,8-8A8,8,0,0,1,296,72Zm32,24a8,8,0,1,1,8-8A8,8,0,0,1,328,96Z"/><path d="M472,312c0-20.64-7.121-66.493-13.634-104.118A23.982,23.982,0,0,0,473.869,168a23.9,23.9,0,0,0,6.1-17.167C479.358,137.958,468.382,128,455.493,128H48a16,16,0,0,0-16,16h0a16,16,0,0,0,16,16H312a8,8,0,0,1,8,8h0a8,8,0,0,1-8,8H40.014A8.041,8.041,0,0,0,32,184a24.032,24.032,0,0,0,21.634,23.882C47.121,245.507,40,291.36,40,312c0,83.12,5.14,116.06,7.39,126.49C45.41,442.21,32,459.59,32,464c0,19.03,19.8,31.31,37.44,24.37,133.82,29,224.96,32.12,373.12,0C459.95,495.22,480,483.08,480,464c0-4.42-13.34-21.79-15.39-25.51C466.86,428.06,472,395.12,472,312ZM292,448H220a108,108,0,0,1,0-216h72a108,108,0,0,1,0,216ZM423.726,176H360a8,8,0,0,1-8-8h0a8,8,0,0,1,8-8h64a8,8,0,0,1,7.983,8.533A8.182,8.182,0,0,1,423.726,176Z"/></g></g></svg>
