<svg id="Capa_1" enable-background="new 0 0 512 512" height="512" viewBox="0 0 512 512" width="512" xmlns="http://www.w3.org/2000/svg"><g><circle cx="46.532" cy="261.767" r="7.5"/><circle cx="46.532" cy="358.595" r="7.5"/><circle cx="46.532" cy="455.423" r="7.5"/><circle cx="467.695" cy="261.767" r="7.5"/><circle cx="467.695" cy="358.595" r="7.5"/><circle cx="467.695" cy="455.423" r="7.5"/><path d="m512 277.52v-31.505c0-9.978-8.117-18.096-18.096-18.096h-6.178c.184-.757.379-1.513.541-2.273 2.797-13.107 2.371-26.816-1.231-39.645-3.924-13.975-4.213-28.742-.836-42.706.483-2 .876-4.049 1.166-6.089 4.469-31.329-15.096-61.504-45.511-70.19-1.688-.482-3.386-.886-5.091-1.226-.378-11.616-3.83-23.039-10.083-32.931-2.215-3.502-6.845-4.544-10.348-2.333-3.501 2.213-4.545 6.846-2.332 10.347 4.524 7.156 7.148 15.352 7.696 23.735-13.717.551-27.081 5.502-37.95 14.426-3.201 2.628-3.666 7.354-1.038 10.556s7.354 3.666 10.556 1.038c7.911-6.495 17.551-10.228 27.51-10.938l-1.09 9.292c-.483 4.114 2.462 7.84 6.576 8.322.297.035.591.052.883.052 3.751 0 6.991-2.81 7.44-6.627l1.149-9.797c.669.161 1.338.316 2.003.506 23.244 6.639 38.196 29.703 34.78 53.651-.224 1.57-.525 3.145-.896 4.681-3.979 16.455-3.643 33.843.975 50.286 2.989 10.646 3.327 21.567 1.003 32.458-.388 1.816-.866 3.625-1.399 5.403h-88.783c.968-5.117 1.459-10.337 1.459-15.581 0-22.163-8.719-42.315-22.887-57.251 7.244-11.229 12.039-23.124 14.257-35.427.092-.514.193-1.028.303-1.542.59-2.767 1.421-5.489 2.468-8.093 1.546-3.843-.316-8.211-4.159-9.757-3.848-1.547-8.212.316-9.757 4.159-1.368 3.401-2.452 6.954-3.222 10.562-.145.676-.277 1.352-.397 2.019-1.739 9.648-5.404 19.055-10.9 28.041-3.61-2.635-7.439-4.98-11.454-7.017-3.136-20.783-10.945-40.26-22.709-56.536-12.938-17.9-30.414-31.527-50.539-39.406-26.222-10.266-55.767-10.196-83.191.199-17.692 6.706-34.01 17.524-47.734 31.379-.216-2.987-1.025-6.235-2.728-9.752-5.781-11.946-15.34-11.551-20.478-11.337-.703.029-1.656.067-2.321.045-.39-1.205-.813-3.336-1.114-4.85-1.616-8.129-4.979-25.046-24.433-25.046s-22.818 16.92-24.435 25.049c-.301 1.514-.725 3.646-1.114 4.85-.665.022-1.619-.016-2.321-.045-5.125-.213-14.695-.609-20.479 11.336-5.941 12.275-1.04 21.287 2.204 27.25.955 1.756 1.871 3.44 2.275 4.758-.437.207-.927.424-1.343.61-5.437 2.42-15.557 6.924-15.557 23.944 0 7.788 4.482 18.212 14.053 32.647-6.174 11.4-8.122 24.677-5.319 37.541l8.119 37.252h-21.867c-9.979.001-18.096 8.119-18.096 18.097v31.505c0 9.453 7.289 17.224 16.541 18.017v29.289c-9.252.792-16.541 8.563-16.541 18.017v31.505c0 9.453 7.289 17.225 16.541 18.017v29.288c-9.252.793-16.541 8.564-16.541 18.017v31.505c0 9.978 8.117 18.096 18.096 18.096h315.94c4.143 0 7.5-3.358 7.5-7.5s-3.357-7.5-7.5-7.5h-315.94c-1.707 0-3.096-1.389-3.096-3.096v-31.505c0-1.707 1.389-3.096 3.096-3.096h475.809c1.707 0 3.096 1.389 3.096 3.096v31.505c0 1.707-1.389 3.096-3.096 3.096h-129.869c-4.143 0-7.5 3.358-7.5 7.5s3.357 7.5 7.5 7.5h129.868c9.979 0 18.096-8.118 18.096-18.096v-31.505c0-9.453-7.289-17.225-16.541-18.017v-29.288c9.252-.793 16.541-8.564 16.541-18.017v-31.505c0-9.454-7.289-17.225-16.541-18.017v-29.289c9.252-.793 16.541-8.564 16.541-18.017zm-143.919-49.601h-132.971c-1.185-5.08-1.79-10.308-1.79-15.581 0-13.559 3.925-26.552 11.374-37.746 6.542 2.867 16.303 5.707 29.323 5.707 7.019 0 14.982-.825 23.896-2.915 6.896-1.617 11.23-8.329 9.867-15.279-1.327-6.77-3.092-12.741-5.114-18.017 37.155.576 67.208 30.961 67.208 68.25 0 5.268-.608 10.501-1.793 15.581zm-75.395-64.735c-10.15 2.167-31.542 4.993-46.946-4.956-15.405-9.949-21.626-30.61-23.826-40.754 10.15-2.167 31.544-4.993 46.946 4.956 15.406 9.949 21.626 30.61 23.826 40.754zm11.575-72.899c8.754 12.112 15.022 26.281 18.436 41.492-6.742-1.767-13.812-2.715-21.101-2.715-2.073 0-4.154.098-6.219.251-1.686-2.705-3.409-5.108-5.112-7.221 2.308-19.093 1.706-35.661-1.541-48.82 5.748 5.003 10.97 10.695 15.537 17.013zm-43.852-34.225c11.775 4.61 17.691 25.041 15.964 53.374-7.576-4.704-27.397-13.732-59.686-6.161-6.895 1.617-11.23 8.329-9.867 15.279 5.184 26.454 16.979 40.885 25.189 48.031-8.965 13.594-13.69 29.336-13.69 45.755 0 5.25.5 10.465 1.469 15.581h-63.101c1.232-23.004 7.503-49.89 17.857-76.337 25.836-65.988 65.99-103.308 85.865-95.522zm-72.406.257c13.219-5.011 26.66-7.299 39.888-6.906-6.059 4.007-12.247 9.267-18.458 15.751-18.716 19.536-36.066 48.285-48.855 80.951-11.04 28.195-17.686 57.037-18.908 81.806h-12.694l7.28-39.613c2.262-12.312.215-24.884-5.49-35.452 9.451-14.31 13.878-24.631 13.878-32.376 0-13.179-6.067-18.851-11.329-21.865 14.179-19.319 33.331-34.2 54.688-42.296zm-143.235 53.922c3.655-1.628 10.461-4.656 10.461-13.101 0-5.202-2.293-9.418-4.316-13.138-3.015-5.543-4.355-8.435-1.879-13.548 1.494-3.086 2.144-3.058 6.357-2.884 3.655.152 9.185.38 13.592-4.027 3.274-3.275 4.198-7.922 5.176-12.841 2.029-10.207 3.468-12.971 9.721-12.971s7.691 2.764 9.721 12.971c.978 4.919 1.901 9.566 5.176 12.841 4.407 4.408 9.934 4.176 13.593 4.027 4.213-.174 4.863-.202 6.355 2.884 2.476 5.113 1.136 8.005-1.879 13.548-2.024 3.72-4.316 7.936-4.316 13.138 0 4.83 2.228 7.884 4.818 9.922.278.242.57.473.89.678.09.057.183.103.274.156 1.596 1.053 3.223 1.786 4.479 2.345 4.431 1.972 6.655 2.962 6.655 10.24 0 1.883-.916 7.317-8.568 19.702-10.03-9.586-23.468-15.032-37.411-15.032-.83 0-1.654.019-2.473.056-12.997.585-25.192 6.021-34.417 15.126-7.717-12.456-8.663-17.933-8.663-19.852-.003-7.277 2.222-8.268 6.654-10.24zm3.635 85.959h16.899c4.143 0 7.5-3.358 7.5-7.5s-3.357-7.5-7.5-7.5h-19.647c-.513-9.372 2.324-18.675 8.148-26.248 6.833-8.885 17.061-14.265 28.066-14.76.595-.027 1.192-.041 1.794-.041 10.935 0 21.447 4.625 28.843 12.689 7.832 8.54 11.195 20.786 8.995 32.757l-7.778 42.324h-58.406zm-33.403 81.322v-31.505c0-1.707 1.389-3.096 3.096-3.096h475.809c1.707 0 3.096 1.389 3.096 3.096v31.505c0 1.707-1.389 3.096-3.096 3.096h-475.809c-1.707 0-3.096-1.389-3.096-3.096zm465.459 114.923v29.131h-448.918v-29.131zm16.541-49.6v31.505c0 1.707-1.389 3.096-3.096 3.096h-475.808c-1.707 0-3.096-1.389-3.096-3.096v-31.505c0-1.707 1.389-3.096 3.096-3.096h90.796c4.143 0 7.5-3.358 7.5-7.5s-3.357-7.5-7.5-7.5h-77.351v-29.131h448.918v29.131h-341.567c-4.143 0-7.5 3.358-7.5 7.5s3.357 7.5 7.5 7.5h355.013c1.706 0 3.095 1.389 3.095 3.096z"/></g></svg>