<?xml version="1.0" encoding="utf-8"?>
<!-- Svg Vector Icons : http://www.onlinewebfonts.com/icon -->
<!DOCTYPE svg PUBLIC "-//W3C//DTD SVG 1.1//EN" "http://www.w3.org/Graphics/SVG/1.1/DTD/svg11.dtd">
<svg version="1.1" xmlns="http://www.w3.org/2000/svg" xmlns:xlink="http://www.w3.org/1999/xlink" x="0px" y="0px" viewBox="0 0 1000 1000" enable-background="new 0 0 1000 1000" xml:space="preserve">
<metadata> Svg Vector Icons : http://www.onlinewebfonts.com/icon </metadata>
<g><g transform="translate(0.000000,512.000000) scale(0.100000,-0.100000)"><path d="M7831.6,5087.3c-179.5-39-458.6-175.6-608.8-298.6c-247.8-202.9-464.4-554.2-554.2-899.6c-35.1-134.6-44.9-218.6-44.9-448.8c0-310.3,21.5-431.3,124.9-698.6c91.7-238.1,202.9-384.4,807.9-1067.4c454.7-513.2,569.8-630.3,589.3-610.8c214.6,226.4,1166.9,1328.9,1213.8,1406.9c99.5,163.9,193.2,396.1,230.3,569.8c52.7,245.9,44.9,612.7-19.5,856.6c-150.2,573.7-536.6,999.1-1055.7,1163C8333.1,5116.5,8020.8,5130.2,7831.6,5087.3z M8331.1,4435.5c731.8-138.5,995.2-1055.7,448.8-1566.9c-351.2-327.8-878.1-327.8-1233.3,0c-199,185.4-290.8,396.1-290.8,669.3C7255.9,4111.6,7771.1,4540.9,8331.1,4435.5z"/><path d="M5070.4,1412.8c-210.7-68.3-292.7-134.6-292.7-236.1c0-64.4,48.8-134.6,109.3-156.1c35.1-13.7,82-3.9,191.2,39c80,33.2,163.9,58.5,187.3,58.5c58.5,0,156.1,103.4,156.1,165.9c0,31.2-23.4,74.1-56.6,109.3C5296.7,1459.7,5230.4,1465.5,5070.4,1412.8z"/><path d="M5802.1,1401.1c-72.2-70.3-66.3-167.8,11.7-232.2c56.6-48.8,72.2-50.7,275.1-50.7c210.7,0,214.6,0,271.2,56.6c31.2,31.2,56.6,76.1,56.6,99.5c0,56.6-50.7,148.3-87.8,163.9c-17.6,5.9-132.7,11.7-255.6,11.7C5860.7,1449.9,5847,1448,5802.1,1401.1z"/><path d="M6797.3,1401.1c-68.3-66.3-64.4-152.2,7.8-226.4c56.6-56.6,60.5-56.6,275.1-56.6c214.7,0,218.6,0,275.1,56.6c72.2,74.2,76.1,160,7.8,226.4c-44.9,46.8-58.5,48.8-282.9,48.8C6855.9,1449.9,6842.2,1448,6797.3,1401.1z"/><path d="M1856.5,942.6c-523-66.3-1042-403.9-1366-887.9c-521-776.6-521-1892.8,2-2667.5c93.7-142.5,1551.3-1810.9,1592.3-1826.5c19.5-7.8,1440.1,1594.3,1566.9,1769.9c273.2,372.7,423.4,864.5,423.4,1385.4c0,419.6-76.1,763-245.9,1098.6C3610.8,247.9,3214.6,634.2,2810.7,806C2527.8,927,2157,979.6,1856.5,942.6z M2359.9-83.9c249.8-74.2,499.6-273.2,608.8-485.9c105.4-212.7,142.5-487.8,89.8-712.3c-103.4-452.7-563.9-788.4-1034.2-753.2c-456.6,33.2-815.7,353.2-911.3,813.7c-97.6,472.2,185.4,956.2,657.6,1122C1928.7-42.9,2196-35.1,2359.9-83.9z"/><path d="M4531.8,786.5c-78.1-31.2-105.4-95.6-105.4-249.8c0-78.1,9.8-181.5,21.5-230.3c39-154.2,175.6-210.8,282.9-119c58.5,50.7,58.5,62.4,33.2,339.5c-11.7,140.5-25.4,189.3-54.6,218.5C4660.6,792.3,4586.4,809.9,4531.8,786.5z"/><path d="M4963.1-39c-68.3-56.6-78.1-163.9-21.5-226.4c52.7-58.5,206.8-101.5,374.7-105.4c138.5-3.9,150.2,0,195.1,50.7C5605-210.7,5542.6-52.6,5406-52.6c-39,1.9-111.2,9.8-160,21.5C5039.1,13.7,5021.6,13.7,4963.1-39z"/><path d="M5954.3-81.9c-50.7-35.1-72.2-122.9-46.8-191.2c35.1-89.8,117.1-115.1,343.4-107.3c181.5,5.9,206.8,9.8,251.7,52.7c62.4,58.5,66.3,152.2,9.8,224.4c-39,50.8-44.9,50.8-279.1,50.8C6053.9-52.6,5985.6-60.4,5954.3-81.9z"/><path d="M6943.7-91.7c-54.6-54.6-66.4-122.9-31.2-193.2c42.9-80,136.6-105.4,357.1-97.6c156.1,7.8,185.4,13.7,228.3,54.6c66.3,62.5,70.2,171.7,5.8,232.2c-41,39-66.4,42.9-282.9,42.9C7010-52.6,6978.8-56.5,6943.7-91.7z"/><path d="M7944.7-95.6c-58.5-66.3-66.3-107.3-37.1-179.5c17.5-44.9,46.8-72.2,89.8-87.8c89.8-31.2,376.6-27.3,456.6,5.8c78.1,33.2,119,122.9,87.8,201c-35.1,91.7-68.3,101.5-322,103.4C7999.4-52.6,7981.8-54.6,7944.7-95.6z"/><path d="M8939.9-95.6c-46.8-50.7-58.5-148.3-25.4-208.8c21.5-41,91.7-70.2,204.9-89.8c41-7.8,111.2-31.2,152.2-50.7c121-62.4,226.4-19.5,257.6,101.5c33.2,134.6-162,267.3-419.6,286.9C8994.6-48.7,8979-52.6,8939.9-95.6z"/><path d="M9628.8-720c-46.8-41-50.7-62.5-58.5-220.5c-5.8-95.6-13.6-193.2-21.5-214.6c-5.8-23.4,5.8-64.4,27.3-101.5c76.1-122.9,247.8-95.6,298.6,46.8c13.7,41,25.4,156.1,25.4,255.6c0,175.6-1.9,185.4-54.6,230.3C9777.1-665.4,9693.2-663.4,9628.8-720z"/><path d="M9207.3-1500.5c-27.3-9.8-109.3-27.3-181.5-35.1c-97.6-11.7-146.4-27.3-181.5-60.5c-58.5-54.6-62.5-150.2-5.9-220.5c35.1-44.9,52.7-50.7,171.7-50.7c154.2,0,325.9,44.9,388.3,103.4c27.3,25.4,42.9,62.5,42.9,105.4c0,91.7-27.3,134.6-99.5,160C9269.7-1473.2,9269.7-1473.2,9207.3-1500.5z"/><path d="M5876.3-1572.8c-76.1-46.8-99.5-130.7-56.6-212.7c15.6-31.2,44.9-62.5,60.5-70.3c17.6-5.8,134.6-11.7,261.5-11.7c214.6,0,232.2,1.9,271.2,44.9c27.3,29.3,42.9,70.2,42.9,113.2c-1.9,134.6-72.2,173.7-325.9,173.7C5975.8-1535.7,5927-1543.5,5876.3-1572.8z"/><path d="M6883.2-1564.9c-56.6-31.2-101.5-128.8-82-181.5c5.9-17.6,29.3-52.7,50.7-76.1c37.1-41,56.6-44.9,277.1-44.9s240,3.9,277.1,44.9c21.5,23.4,44.9,58.5,50.7,76.1c19.5,54.6-25.4,152.2-85.8,181.5C7296.9-1525.9,6955.4-1525.9,6883.2-1564.9z"/><path d="M7890.1-1559.1c-99.5-52.7-121-191.2-42.9-265.4c41-39,66.3-42.9,275.1-42.9c124.9,0,243.9,7.8,263.4,19.5c19.5,9.8,46.8,44.9,60.5,78.1c31.2,76.1-1.9,165.9-80,204.9C8299.9-1529.8,7950.6-1525.9,7890.1-1559.1z"/><path d="M5296.7-1888.9c-60.5-48.8-160-234.2-185.4-351.3c-33.2-150.2,41-245.9,181.5-236.1c54.6,3.9,124.9,78.1,138.5,148.3c7.8,33.2,39,107.3,70.3,162c70.2,126.8,72.2,206.8,7.8,269.3C5450.9-1836.2,5367-1834.2,5296.7-1888.9z"/><path d="M5382.6-2778.7c-68.3-25.4-117.1-91.7-117.1-162c0-58.5,15.6-85.9,103.4-169.8c103.4-101.5,265.4-201,327.8-201c17.5,0,60.5,23.4,93.7,50.7c97.6,82,78.1,210.8-39,273.2c-33.2,17.6-97.6,64.4-142.5,103.4C5491.9-2774.8,5447-2755.3,5382.6-2778.7z"/><path d="M6270.5-3061.6c-99.5-56.6-119-181.5-39-259.5c44.9-46.8,58.5-48.8,277.1-48.8c240,1.9,271.2,9.8,314.2,91.7c37.1,68.3,27.3,122.9-33.2,183.4c-56.6,56.6-60.5,56.6-269.3,56.6C6399.2-3038.2,6293.9-3048,6270.5-3061.6z"/><path d="M7234.4-3094.8c-72.2-74.2-76.1-160-7.8-226.4c44.9-46.8,58.5-48.8,282.9-48.8c224.4,0,238.1,1.9,282.9,48.8c68.3,66.4,64.4,152.2-7.8,226.4c-56.6,56.6-60.5,56.6-275.1,56.6C7294.9-3038.2,7291-3038.2,7234.4-3094.8z"/><path d="M8245.3-3137.7c-48.8-27.3-87.8-124.9-76.1-185.4c5.8-31.2,48.8-80,119-128.8c60.5-44.9,130.7-105.4,158.1-136.6c70.2-80,171.7-93.7,243.9-29.3c121,103.4,52.7,255.6-183.4,419.5C8383.8-3116.3,8311.6-3098.7,8245.3-3137.7z"/><path d="M8627.7-3990.5c-25.4-17.6-56.6-74.2-70.2-122.9c-15.6-48.8-50.8-122.9-80-165.9c-99.5-148.3-44.9-300.5,109.3-300.5c56.6,0,82,13.7,132.7,72.2c74.2,83.9,150.3,245.9,167.8,357.1c11.7,68.3,5.9,83.9-46.8,136.6C8772.1-3947.5,8694.1-3937.8,8627.7-3990.5z"/><path d="M2570.7-4597.4c-33.2-35.1-56.6-78-56.6-109.3c0-31.2,23.4-74.1,56.6-109.3c56.6-56.6,60.5-56.6,284.9-56.6c214.7,0,228.3,1.9,273.2,48.8c66.3,64.4,66.3,169.8,0,234.2c-44.9,46.8-58.5,48.8-273.2,48.8C2631.2-4540.8,2627.3-4540.8,2570.7-4597.4z"/><path d="M3575.6-4587.6c-41-35.1-54.6-62.4-54.6-119c0-56.6,13.7-83.9,54.6-119c48.8-42.9,70.3-46.8,277.1-46.8c212.7,0,226.4,1.9,271.2,48.8c66.3,64.4,66.3,169.8,0,234.2c-44.9,46.8-58.5,48.8-271.2,48.8C3645.9-4540.8,3624.4-4544.7,3575.6-4587.6z"/><path d="M4574.7-4581.7c-70.3-54.7-72.2-173.7-2-242c44.9-46.8,58.5-48.8,271.2-48.8c206.8,0,228.3,3.9,277.1,46.8c41,35.1,54.6,62.4,54.6,119c0,56.6-13.7,83.9-54.6,119c-48.8,42.9-70.3,46.8-273.2,46.8C4654.7-4540.8,4619.6-4546.6,4574.7-4581.7z"/><path d="M5568-4589.6c-33.2-31.2-48.8-68.3-48.8-117.1c0-48.8,15.6-85.9,48.8-117.1c44.9-46.8,58.5-48.8,273.2-48.8c224.4,0,228.3,0,284.9,56.6c33.2,35.1,56.6,78.1,56.6,109.3c0,31.2-23.4,74.2-56.6,109.3c-56.6,56.6-60.5,56.6-284.9,56.6C5626.5-4540.8,5612.8-4542.7,5568-4589.6z"/><path d="M6563.2-4589.6c-48.8-46.8-62.5-126.8-37.1-195.1c25.4-64.4,115.1-87.8,329.8-87.8c202.9,0,208.8,1.9,265.4,56.6c60.5,60.5,70.3,107.3,35.1,183.4c-33.2,74.2-97.6,91.7-331.7,91.7C6623.7-4540.8,6608-4542.7,6563.2-4589.6z"/><path d="M7560.3-4591.5c-54.6-56.6-64.4-115.1-29.3-189.3c33.2-74.2,97.6-91.7,322-91.7c201,0,206.9,1.9,263.4,56.6c33.2,35.1,56.6,78.1,56.6,109.3c0,31.2-23.4,74.2-56.6,109.3c-56.6,56.6-60.5,56.6-281,56.6C7620.8-4540.8,7611.1-4542.7,7560.3-4591.5z"/></g></g>
</svg>