<?xml version="1.0" encoding="utf-8"?>
<!-- Svg Vector Icons : http://www.onlinewebfonts.com/icon -->
<!DOCTYPE svg PUBLIC "-//W3C//DTD SVG 1.1//EN" "http://www.w3.org/Graphics/SVG/1.1/DTD/svg11.dtd">
<svg version="1.1" xmlns="http://www.w3.org/2000/svg" xmlns:xlink="http://www.w3.org/1999/xlink" x="0px" y="0px" viewBox="0 0 1000 1000" enable-background="new 0 0 1000 1000" xml:space="preserve">
<metadata> Svg Vector Icons : http://www.onlinewebfonts.com/icon </metadata>
<g><g transform="translate(0.000000,512.000000) scale(0.100000,-0.100000)"><path d="M6341.9,3537.7L4858,2053.8l876.9-875l875-876.9l1483.9,1483.9l1483.9,1483.9l-876.9,876.9l-875,875L6341.9,3537.7z M7988.5,4112.1c-88.1-90-170.4-162.8-181.9-162.8s-88.1,68.9-172.3,153.2l-153.2,153.2l172.3,172.3l172.3,172.3l162.8-162.7l162.8-162.8L7988.5,4112.1z M8448.1,3633.5l-172.3-172.3l-128.3,130.2l-130.2,128.3l172.3,172.3l172.3,172.3l128.3-128.3l130.2-130.2L8448.1,3633.5z M7448.6,3886.2l157-157l-172.3-172.3L7261,3384.6l-162.8,162.8L6935.5,3710l166.6,166.6c91.9,93.8,172.3,168.5,178.1,168.5S7360.5,3974.3,7448.6,3886.2z M8999.5,3426.7l157-157l-172.3-172.3L8811.9,2925l-162.8,162.7l-162.7,162.8l166.6,166.6c91.9,93.8,172.3,168.5,178,168.5C8836.7,3585.6,8911.4,3514.7,8999.5,3426.7z M7950.3,3384.6l124.5-124.5l-172.3-172.3l-172.3-172.3l-128.3,128.3l-130.2,130.2l166.6,166.6c91.9,93.8,172.3,168.5,178,168.5S7883.2,3453.5,7950.3,3384.6z M6893.3,3330.9l157-157L6878,3001.6l-172.3-172.3L6542.9,2992l-162.8,162.8l166.6,166.6c91.9,93.8,172.3,168.5,178.1,168.5S6805.3,3419,6893.3,3330.9z M8438.5,2551.7l-172.3-172.3l-162.8,162.8l-162.8,162.7l172.3,172.3l172.3,172.3l162.8-162.7l162.8-162.8L8438.5,2551.7z M7395,2829.3l124.5-124.5l-172.3-172.3l-172.3-172.3l-128.3,128.3l-130.2,130.2l166.6,166.6c91.9,93.8,172.3,168.5,178.1,168.5S7328,2898.2,7395,2829.3z M6338.1,2775.7l157-157l-168.5-168.5L6160,2283.6l-162.7,162.8l-162.8,162.7l162.8,162.8c90,90,166.6,162.7,172.3,162.7C6175.3,2934.6,6250,2863.7,6338.1,2775.7z M7883.2,1996.4l-172.3-172.3l-162.8,162.7l-162.8,162.8l172.3,172.3l172.3,172.3l162.8-162.7l162.7-162.8L7883.2,1996.4z M5777.1,1900.7l-172.3-172.3L5442,1891.1l-162.7,162.7l172.3,172.3l172.3,172.3l162.8-162.7l162.8-162.8L5777.1,1900.7z M6839.7,2274l124.5-124.5l-168.5-168.5l-166.6-166.6l-128.3,130.2L6370.6,2073l162.8,162.8c88.1,90,166.6,162.7,172.3,162.7C6711.4,2398.5,6772.7,2343,6839.7,2274z M7333.7,1446.9l-168.5-168.5l-162.7,162.8l-162.7,162.7l166.6,166.6l168.5,168.5l162.7-162.8l162.8-162.7L7333.7,1446.9z M6246.2,1431.6l-172.3-172.3l-128.3,130.2l-130.2,128.3l172.3,172.3l172.3,172.3l128.3-128.3l130.2-130.2L6246.2,1431.6z M6797.6,1224.8l157-157l-172.3-172.3L6610,723.1l-162.8,162.8l-162.7,162.7l166.6,166.6c91.9,93.8,172.3,168.5,178.1,168.5S6709.5,1312.9,6797.6,1224.8z"/><path d="M4337.2,2069.2l-120.6-120.6l-111,111l-109.1,109.1l-526.5-526.5l-526.5-526.5l111-111.1l109.1-111.1l-114.9-113c-63.2-63.2-114.9-122.5-114.9-134c0-24.9,2370.4-2395.3,2383.8-2381.9c3.8,5.8,51.7,95.7,103.4,201c283.4,580.2,668.2,961.2,1252.2,1244.6c155.1,74.7,181.9,93.8,162.7,116.8C6751.7-69.6,4494.2,2187.9,4477,2187.9C4465.5,2187.9,4402.3,2134.3,4337.2,2069.2z"/><path d="M1578.1-1226L100-2704.2l876.9-876.9l875-875l1483.9,1483.9l1483.9,1483.9l-871.2,871.2c-478.7,478.7-875,871.2-880.8,871.2C3062,254,2391.9-412.3,1578.1-1226z M3236.3-326.1l157-157L3221-655.4l-172.3-172.3L2885.9-665l-162.7,162.8l166.6,166.6c91.9,93.8,172.3,168.5,178.1,168.5C3073.5-167.2,3148.2-238,3236.3-326.1z M3737.9-827.8l124.5-124.5l-172.3-172.3l-172.3-172.3l-128.3,128.3l-130.2,130.2l166.6,166.6c91.9,93.8,172.3,168.5,178.1,168.5C3609.6-703.3,3670.9-758.8,3737.9-827.8z M2681-881.4l157-157l-172.3-172.3L2493.4-1383l-153.2,153.2c-84.2,84.3-153.2,160.8-153.2,172.3c0,19.2,306.4,335.1,325.5,335.1C2518.3-722.5,2592.9-793.3,2681-881.4z M4226.2-1660.7L4053.8-1833l-162.7,162.8l-162.7,162.8l172.3,172.3l172.3,172.3l162.7-162.7l162.7-162.8L4226.2-1660.7z M2120-1756.4l-172.3-172.3L1784.9-1766l-162.7,162.8l172.3,172.3l172.3,172.3l162.7-162.8l162.7-162.8L2120-1756.4z M3182.7-1383l124.5-124.5l-172.3-172.3l-172.3-172.3l-128.3,128.3L2704-1593.7l166.6,166.6c91.9,93.8,172.3,168.5,178.1,168.5C3054.4-1258.6,3115.6-1314.1,3182.7-1383z M3680.5-2206.3c-88.1-90-170.4-162.8-181.9-162.8s-88.1,68.9-172.3,153.2l-153.2,153.2l172.3,172.3l172.3,172.3l162.7-162.8l162.7-162.7L3680.5-2206.3z M2589.1-2225.5l-172.3-172.3l-128.3,130.2l-130.2,128.3l172.3,172.3l172.3,172.3l128.3-128.3l130.2-130.2L2589.1-2225.5z M1564.7-2311.7L1392.4-2484l-162.7,162.8l-162.7,162.8l172.3,172.3l172.3,172.3l162.7-162.7l162.7-162.8L1564.7-2311.7z M3140.5-2432.3l157-157l-172.3-172.3l-172.3-172.3l-162.7,162.7l-162.7,162.8l166.6,166.6c91.9,93.8,172.3,168.5,178.1,168.5S3052.5-2344.2,3140.5-2432.3z M2033.8-2780.8l-172.3-172.3l-128.3,130.2L1603-2694.6l172.3,172.3l172.3,172.3l128.3-128.3l130.2-130.2L2033.8-2780.8z M1053.5-2549.1c65.1-63.2,118.7-122.5,118.7-134c0-26.8-308.3-337-335.1-337c-11.5,0-88.1,68.9-172.3,153.2l-153.2,153.2l170.4,170.4C877.4-2346.1,839.1-2346.1,1053.5-2549.1z M2585.3-2987.5l157-157L2570-3316.9l-172.3-172.3l-162.7,162.8l-162.7,162.8l166.6,166.6c91.9,93.8,172.3,168.5,178.1,168.5C2422.5-2828.6,2497.2-2899.5,2585.3-2987.5z M1478.6-3336l-172.3-172.3L1178-3378.1l-130.2,128.3l172.3,172.3l172.3,172.3l128.3-128.3l130.2-130.2L1478.6-3336z M2030-3542.8l157-157l-172.3-172.3l-172.3-172.3l-153.2,153.2C1605-3807,1536-3730.4,1536-3719c0,19.2,306.4,335.1,325.5,335.1C1867.3-3383.9,1941.9-3454.7,2030-3542.8z"/><path d="M7368.2-215.1c-1064.6-174.2-1876.4-997.5-2033.4-2058.3c-32.6-224-28.7-591.7,7.6-746.7l17.2-67l13.4,59.4c67,294.9,1032,1405.4,1801.7,2077.4c423.1,367.6,794.6,639.5,943.9,689.3l70.9,23l-57.4,17.2C8024.9-188.3,7550.1-186.3,7368.2-215.1z"/><path d="M8130.2-406.5c-227.9-114.9-731.4-513.1-1110.5-878.8l-160.8-155.1l189.6-235.5l189.5-233.6l201.1,214.5c610.8,654.8,989.9,1192.9,938.2,1328.8C8360-322.3,8270-335.7,8130.2-406.5z"/><path d="M6401.2-1901.9c-664.4-700.8-1064.6-1305.8-899.9-1357.5c57.4-19.1,312.1,113,515.1,264.2c319.8,237.4,995.6,832.9,995.6,875c0,7.7-88.1,86.2-195.3,174.2c-109.1,86.2-210.6,170.4-227.8,183.8C6562.1-1739.2,6539.1-1756.4,6401.2-1901.9z"/><path d="M7172.9-2051.3c-55.5-55.5-65.1-78.5-65.1-155.1c0-88.1,5.7-95.7,158.9-252.8c162.8-168.5,229.8-216.3,304.4-216.3c70.9,0,168.5,72.8,201.1,147.4c45.9,114.9,13.4,183.8-183.8,375.3C7423.7-1990,7416-1986.2,7328-1986.2C7251.4-1986.2,7228.4-1995.7,7172.9-2051.3z"/><path d="M8365.7-2281c-47.9-44-57.4-76.6-80.4-270c-32.5-287.2-327.4-582.1-616.5-614.6c-49.8-5.8-120.6-13.4-157-19.1c-151.3-23-208.7-206.8-99.6-315.9c47.9-47.9,70.8-55.5,160.8-55.5c147.4,0,381,65.1,526.5,145.5c158.9,90,342.7,273.8,432.7,432.7c80.4,145.5,145.5,379.1,145.5,526.5c0,90-7.7,112.9-55.5,160.8C8549.5-2217.8,8438.5-2214,8365.7-2281z"/><path d="M8982.3-2462.9c-46-45.9-55.5-72.8-55.5-149.3c0-153.2-51.7-350.4-135.9-522.7c-111.1-225.9-308.3-423.1-534.2-534.2c-172.3-84.2-369.5-135.9-522.7-135.9c-124.5,0-204.9-74.7-204.9-185.7c0-141.7,107.2-206.8,306.4-187.6c675.9,67,1206.3,503.6,1409.2,1158.4c46,149.3,70.8,413.6,46,488.2C9246.5-2395.9,9085.7-2361.4,8982.3-2462.9z"/><path d="M9640.9-2627.6c-84.2-36.4-112.9-107.2-126.4-308.3c-30.6-497.8-331.2-974.6-788.8-1250.3c-174.2-105.3-459.5-193.4-666.3-206.8c-256.6-15.3-319.8-57.4-319.8-212.5c0-63.2,11.5-86.2,61.3-128.3c61.3-51.7,67-53.6,245.1-42.1c476.8,30.6,921,229.8,1263.7,568.7c344.6,340.8,553.3,790.8,585.9,1273.3c15.3,206.8-5.7,260.4-116.8,308.2C9702.2-2595,9717.5-2593.1,9640.9-2627.6z"/></g></g>
</svg>