<svg id="_x33_0" enable-background="new 0 0 64 64" height="512" viewBox="0 0 64 64" width="512" xmlns="http://www.w3.org/2000/svg"><g><path d="m31 8c-1.103 0-2 .897-2 2v12.343c0 .789-.302 1.532-.853 2.096-.02.02-.04.04-.06.06l-26.501 26.501c-.373.372-.586.888-.586 1.414 0 3.08 2.506 5.586 5.586 5.586.534 0 1.036-.208 1.414-.586l31.367-31.367c8.978 4.31 16.268 11.46 20.761 20.445l2.872 5.744v-12.236c0-17.645-14.355-32-32-32zm29.746 28.16c-4.21-12.806-15.918-21.725-29.746-22.138v-4.022c15.24 0 27.854 11.426 29.746 26.16zm-54.16 19.84c-1.978 0-3.586-1.608-3.586-3.586l21.892-21.892.508.677c.887 1.183 2.131 2.034 3.517 2.469zm24.023-24.023c-1.42-.113-2.748-.83-3.609-1.978l-.679-.905 3.215-3.215c.008-.008.016-.017.024-.024 1.669-1.623 4.141-2.139 6.32-1.306.518.197 1.03.403 1.538.618zm5.983-9.297c-.924-.352-1.887-.523-2.842-.523-.942 0-1.877.167-2.759.489.006-.101.009-.202.009-.303v-6.32c14.699.467 26.837 11.178 29.056 25.822l.08.526c-5.411-8.999-13.652-15.924-23.544-19.691z"/><path d="m49.616 52.557c.431-1.889 1.084-3.722 1.962-5.476l1.396-2.793-2.29.764c-2.521.839-4.867 2.135-6.932 3.79.295-1.004.625-1.999.993-2.982l1.083-2.893-2.276 1.138c-2.725 1.363-5.009 3.394-6.672 5.918-1.576-1.572-3.403-2.903-5.433-3.918l-1.879-.939 1.154 5.193c.076.343.139.691.208 1.037-2.433-2.177-5.433-3.717-8.734-4.377l-2.778-.556 1.813 2.177c1.534 1.841 2.787 3.874 3.745 6.037-2.154-1.085-4.548-1.677-6.976-1.677h-2.414l2.791 2.792c1.779 1.779 3.042 4.01 3.652 6.45l.19.758h31.781v-1c0-3.752.984-7.457 2.845-10.713l2.321-4.063-2.482.828c-2.733.911-5.142 2.481-7.068 4.505zm-7.495-5.228c-.775 2.438-1.321 4.937-1.672 7.469-.626-1.139-1.338-2.226-2.159-3.227 1.01-1.652 2.297-3.094 3.831-4.242zm-1.732 12.563.302 1.108h-3.97l-.547-1.642c-.634-1.902-1.568-3.656-2.737-5.22-.201-1.409-.454-2.824-.763-4.212l-.207-.93c3.858 2.528 6.696 6.4 7.922 10.896zm-6.113.099.337 1.009h-5.748c-.596-4.02-2.051-7.837-4.283-11.205 4.532 1.774 8.126 5.493 9.694 10.196zm-13.67-4.734c1.981.392 3.858 1.239 5.481 2.456.321 1.074.569 2.171.748 3.287h-3.075c-.64-2.114-1.716-4.07-3.154-5.743zm22.158 5.743-.445-1.634c-.07-.258-.171-.503-.25-.757.117-2.101.387-4.183.806-6.235 1.75-1.87 3.836-3.403 6.142-4.499-1.071 2.574-1.713 5.286-1.93 8.085-.882 1.552-1.536 3.247-1.906 5.04zm9.257 0h-4.793c.989-4.208 3.715-7.782 7.426-9.871-1.585 3.055-2.486 6.432-2.633 9.871z"/></g></svg>