<?xml version="1.0" encoding="iso-8859-1"?>
<!-- Generator: Adobe Illustrator 19.0.0, SVG Export Plug-In . SVG Version: 6.00 Build 0)  -->
<svg xmlns="http://www.w3.org/2000/svg" xmlns:xlink="http://www.w3.org/1999/xlink" version="1.1" id="Layer_1" x="0px" y="0px" viewBox="0 0 512 512" style="enable-background:new 0 0 512 512;" xml:space="preserve" width="512" height="512">
<g>
	<path d="M421.904,50.916c-41.372,0-56.768-15.713-78.072-37.456C331.198,0.516,323.39,0,305.388,0l-4,0.002L206.612,0   c-17.998,0-25.807,0.516-38.482,13.47c-21.289,21.756-36.671,37.475-78.033,37.475C49.239,50.944,44,76.04,44,97.903v187.303   c0,0.04,0,0.079,0.001,0.118C44.643,326.01,61.054,367.394,91.46,405c29.696,36.729,72.246,69.275,123.05,94.12   c0.145,0.071,0.292,0.137,0.441,0.199l2.896,1.193C235.829,507.919,245.734,512,256.375,512c10.948,0,21.103-4.21,41.216-12.97   c0.103-0.045,0.205-0.092,0.306-0.142c50.693-24.847,93.143-57.37,122.763-94.053c30.329-37.563,46.699-78.9,47.34-119.539   c0.001-0.04,0.001-0.079,0.001-0.118V97.875C468,76.012,462.761,50.916,421.904,50.916z M453,285.117   c-1.233,76.363-61.615,151.2-161.554,200.229C273.372,493.216,264.309,497,256.375,497c-7.672,0-16.074-3.461-32.814-10.357   l-2.677-1.103C120.746,436.502,60.235,361.604,59,285.146V97.903c0-21.196,4.81-31.959,31.097-31.959   c47.672,0,66.71-19.456,88.771-42.001c8.51-8.696,11.455-8.943,27.745-8.943l4,0.002L305.388,15   c16.284,0,19.228,0.247,27.726,8.953c22.063,22.517,41.116,41.962,88.791,41.962c26.286,0,31.096,10.763,31.096,31.96V285.117z"/>
	<path d="M420.064,205.398c0.003,0,0.005,0,0.007,0c4.139,0,7.496-3.354,7.5-7.494l0.055-62.512   c3.978-5.371,6.335-12.011,6.335-19.191c0-17.809-14.509-32.298-32.342-32.298c-9.803,0-18.595,4.383-24.53,11.284   c-22.856-5.252-41.063-16.551-55.544-34.446c-1.424-1.759-3.566-2.782-5.83-2.782H199.036c-2.262,0-4.403,1.021-5.827,2.779   c-14.99,18.501-33.96,29.968-57.872,34.966c-5.932-7.201-14.915-11.801-24.953-11.801c-17.834,0-32.344,14.489-32.344,32.298   c0,8.705,3.466,16.611,9.084,22.429v139.847c0,0.04,0,0.08,0.001,0.121c0.591,36.763,16.903,73.645,47.176,106.658   c13.898,15.157,30.426,29.156,49.119,41.696c0.091,0.063,0.183,0.124,0.276,0.183c21.12,14.136,44.994,26.414,70.96,36.397   c0.689,0.265,1.404,0.421,2.121,0.473c0.208,0.018,0.418,0.026,0.628,0.026c0.904,0,1.815-0.163,2.69-0.5   c49.085-18.872,90.703-45.94,120.354-78.276c30.272-33.013,46.585-69.895,47.176-106.658c0.001-0.043,0.001-0.086,0.001-0.13   l-0.057-45.988c-0.005-4.139-3.362-7.491-7.5-7.491c-0.003,0-0.006,0-0.009,0c-4.143,0.005-7.496,3.367-7.491,7.509l0.057,45.924   c-0.801,48.225-32.672,96.273-85.385,133.077c-17.834-11.222-39.772-17.382-62.115-18.509l-0.018-24.718   c3.168,0.63,6.475,0.962,9.919,0.962c13.687,0,29.404-4.959,45.993-14.702c13.501-7.904,25.571-19.352,33.117-31.407   c8.806-14.069,10.483-27.234,4.719-37.079c-12.548-21.357-57.798-12.404-78.255-0.408c-7.117,4.173-11.953,7.344-15.547,10.111   l-0.026-36.275c19.265-5.339,33.457-30.853,33.457-62.464c0-35.597-18.008-63.481-40.996-63.481   c-22.973,0-40.968,27.884-40.968,63.481c0,31.65,14.218,57.188,33.507,62.484l0.026,36.323c-3.612-2.783-8.477-5.973-15.649-10.178   c-11.016-6.459-26.82-11.171-41.247-12.297c-18.226-1.423-31.377,3.092-37.006,12.705c-3.549,6.042-4.299,13.56-2.168,21.744   c4.285,16.456,20.348,35.239,39.968,46.74c16.63,9.756,32.372,14.719,46.076,14.719c3.502,0,6.863-0.341,10.08-0.993l0.018,24.733   c-22.477,1.135-44.51,7.365-62.331,18.707c-52.884-36.832-84.87-84.971-85.672-133.283V147.456c2.638,0.697,5.405,1.072,8.26,1.072   c17.817,0,32.313-14.502,32.313-32.327c0-2.274-0.239-4.492-0.688-6.633c24.527-5.811,44.435-17.838,60.538-36.608h109.657   c15.331,17.834,34.775,29.879,57.915,35.936c-0.547,2.35-0.845,4.793-0.845,7.306c0,17.825,14.51,32.327,32.344,32.327   c3.859,0,7.561-0.682,10.997-1.927l-0.045,51.29C412.566,202.034,415.922,205.395,420.064,205.398z M265.872,316.357   c4.278-5.634,6.426-8.462,22.316-17.779c19.391-11.367,52.304-14.18,57.73-4.943c2.718,4.643,1.038,12.692-4.495,21.532   c-6.304,10.07-16.502,19.701-27.989,26.426c-18.787,11.034-36.065,14.984-48.337,11.23l-0.005-6.636l37.13-18.194   c3.72-1.823,5.258-6.315,3.436-10.035c-1.823-3.719-6.315-5.258-10.035-3.435L265.08,329.49l-0.009-12.083   C265.343,317.052,265.615,316.695,265.872,316.357z M231.523,197.01c0-25.827,12.135-48.481,25.968-48.481   c13.849,0,25.996,22.655,25.996,48.481c0,21.007-8.027,39.915-18.47,46.257l-0.026-36.211c-0.003-4.141-3.36-7.495-7.5-7.495   c-0.002,0-0.004,0-0.006,0c-4.142,0.003-7.497,3.363-7.494,7.505l0.026,36.225C239.564,236.977,231.523,218.046,231.523,197.01z    M201.541,341.59c-16.158-9.471-29.744-24.924-33.04-37.58c-1.121-4.308-0.925-7.796,0.592-10.376   c2.461-4.204,11.237-6.249,22.899-5.339c12.117,0.946,25.787,4.982,34.827,10.283c15.947,9.35,18.118,12.19,22.441,17.847   c0.26,0.34,0.536,0.7,0.812,1.057l0.008,12.096l-30.723-15.055c-3.719-1.824-8.212-0.284-10.035,3.435   c-1.822,3.72-0.284,8.212,3.436,10.035l37.335,18.295l0.005,6.51C237.804,356.624,220.441,352.678,201.541,341.59z    M313.209,420.726c-16.9,10.459-35.602,19.817-55.833,27.77c-20.126-7.912-38.736-17.215-55.566-27.608   C234.239,403.631,280.563,403.563,313.209,420.726z M110.384,133.528c-9.563,0-17.344-7.773-17.344-17.327   c0-9.538,7.78-17.298,17.344-17.298c9.547,0,17.314,7.76,17.314,17.298C127.697,125.755,119.931,133.528,110.384,133.528z    M384.274,116.201c0-9.538,7.78-17.298,17.344-17.298c9.563,0,17.342,7.76,17.342,17.298c0,9.554-7.779,17.327-17.342,17.327   C392.055,133.528,384.274,125.755,384.274,116.201z"/>
</g>















</svg>
