<svg id="Capa_1" enable-background="new 0 0 509.826 509.826" height="512" viewBox="0 0 509.826 509.826" width="512" xmlns="http://www.w3.org/2000/svg"><g><path d="m138.174 84.288c-33.505-15.447-76.482-15.059-113.18-8.82 140.677 135.882 98.157 94.818 123.72 119.5-20.241-35.483-24.691-72.833-10.54-110.68z"/><path d="m3.924 96.828c-5.941 35.315-4.545 65.08.25 86.57h89.38z"/><path d="m178.225 265.188-53.61-51.79h-110.07c14.45 28.76 39.35 45.53 74.13 52.77 27.605 5.629 61.24 4.853 89.55-.98z"/><path d="m484.795 75.478c-36.718-6.25-79.232-6.592-113.16 8.81 14.233 37.842 9.538 75.352-10.52 110.66 32.841-31.732 56.838-54.908 123.68-119.47z"/><path d="m332.348 264.446c-7.231-1.657-3.368-.77-17.483-4.008l-3.9-17.04c-.029-.1 2.117-2.042-41.06 39.66v-42.69l-15 9.44-15-9.44v42.69c-41.08-39.69-40.961-40.057-41.06-39.66l-3.9 17.04c-14.1 3.23-10.35 2.37-17.48 4.01.325.31-2.213-2.168 62.44 61.04v35.21c-26.86 4.69-49.97 21.76-62.37 45.86-56.93-24.77-121.63 17.02-121.63 79.84 0 5.87.36 8.1 2 23h394l1.47-13.36c7.39-66.96-60.6-115.81-121.1-89.48-12.4-24.1-35.51-41.17-62.37-45.86v-35.19c48.176-46.975 59.482-57.957 61.944-60.425 63.042 11.683 134.805 5.377 163.426-51.685h-110.08z"/><path d="m505.874 96.828-89.62 86.57h89.42c6.101-27.75 4.88-58.75.2-86.57z"/><path d="m159.975 116.818c0 .1-.233 6.149.2 10.37 3.451 45.396 42.639 87.002 79.73 113.18v-79.15c-86.095-47.823-79.923-44.5-79.93-44.4z"/><path d="m239.904.428c-16.56 11.68-57.37 43.72-73.39 85.71l73.39 40.77z"/><path d="m269.904.428v89.97l53.06-39.79c-18.45-24.2-41.58-42.08-53.06-50.18z"/><path d="m342.771 155.982c10.123-25.591 9.997-51.571-3.837-79.854l-69.03 51.77v112.47c29.26-20.651 59.763-51.188 72.867-84.386z"/></g></svg>